<?xml version="1.0" encoding="UTF-8" standalone="no"?>
<!-- Created with Inkscape (http://www.inkscape.org/) -->

<svg
   xmlns:dc="http://purl.org/dc/elements/1.1/"
   xmlns:cc="http://creativecommons.org/ns#"
   xmlns:rdf="http://www.w3.org/1999/02/22-rdf-syntax-ns#"
   xmlns:svg="http://www.w3.org/2000/svg"
   xmlns="http://www.w3.org/2000/svg"
   xmlns:sodipodi="http://sodipodi.sourceforge.net/DTD/sodipodi-0.dtd"
   xmlns:inkscape="http://www.inkscape.org/namespaces/inkscape"
   width="108.37334mm"
   height="144.49777mm"
   viewBox="0 0 384.00001 511.99998"
   id="svg2"
   version="1.1"
   inkscape:version="0.91 r13725"
   sodipodi:docname="digitalON.svg">
  <defs
     id="defs4" />
  <sodipodi:namedview
     id="base"
     pagecolor="#ffffff"
     bordercolor="#666666"
     borderopacity="1.0"
     inkscape:pageopacity="0.0"
     inkscape:pageshadow="2"
     inkscape:zoom="0.49497475"
     inkscape:cx="566.32588"
     inkscape:cy="86.117622"
     inkscape:document-units="px"
     inkscape:current-layer="layer1"
     showgrid="false"
     fit-margin-top="0"
     fit-margin-left="0"
     fit-margin-right="0"
     fit-margin-bottom="0"
     inkscape:window-width="1366"
     inkscape:window-height="705"
     inkscape:window-x="-8"
     inkscape:window-y="-8"
     inkscape:window-maximized="1" />
  <metadata
     id="metadata7">
    <rdf:RDF>
      <cc:Work
         rdf:about="">
        <dc:format>image/svg+xml</dc:format>
        <dc:type
           rdf:resource="http://purl.org/dc/dcmitype/StillImage" />
        <dc:title></dc:title>
      </cc:Work>
    </rdf:RDF>
  </metadata>
  <g
     inkscape:label="Capa 1"
     inkscape:groupmode="layer"
     id="layer1"
     transform="translate(-376.57143,-516.3622)">
    <path
       id="path3337"
       d="m 568.57143,580.3622 c -70.688,0 -128,57.313 -128,128 0,64 64,129 64,192 l 128,0 c 0,-65 64,-128 64,-192 0,-70.687 -57.312,-128 -128,-128 z m 67.594,208.906 c -12.75,25.344 -25.781,51.344 -31.938,79.094 l -71.469,0 c -6.156,-26.906 -18.906,-52.5 -31.375,-77.5 -14.812,-29.781 -28.812,-57.906 -28.812,-82.5 0,-52.938 43.063,-96 96,-96 52.937,0 96,43.063 96,96 0,24.313 -13.812,51.813 -28.406,80.906 z m -3.594,191.094 c 0,8.844 -7.156,16 -16,16 l -2.938,0 c -6.594,18.625 -24.188,32 -45.063,32 -20.875,0 -38.469,-13.375 -45.063,-32 l -2.936,0 c -8.844,0 -16,-7.156 -16,-16 0,-8.844 7.156,-16 16,-16 l 96,0 c 8.844,0 16,7.156 16,16 z m 0,-48 c 0,8.844 -7.156,16 -16,16 l -96,0 c -8.844,0 -16,-7.156 -16,-16 0,-8.844 7.156,-16 16,-16 l 96,0 c 8.844,0 16,7.156 16,16 z m -222.281,-333.875 28.813,16.656 c -6.25,8.656 -11.656,17.844 -16.094,27.656 l -28.719,-16.563 16,-27.749 z m 158.281,-50.125 c -5.5,0 -10.656,1.063 -16,1.625 l 0,-33.625 32,0 0,33.625 c -5.344,-0.562 -10.5,-1.625 -16,-1.625 z m -93.219,30.531 -16.656,-28.813 27.75,-16 16.563,28.719 c -9.813,4.438 -19,9.844 -27.657,16.094 z m 238.813,63.907 c -4.438,-9.813 -9.875,-19 -16.125,-27.656 l 28.813,-16.656 16,27.75 -28.688,16.562 z m -52.375,-63.938 c -8.625,-6.219 -17.844,-11.625 -27.625,-16.063 l 16.563,-28.719 27.688,16 -16.626,28.782 z m -251.531,145.5 -33.688,0 0,-32 33.625,0 c -0.562,5.344 -1.625,10.5 -1.625,16 0,5.438 1.063,10.688 1.688,16 z m 350.312,-32 0,32 -33.688,0 c 0.625,-5.313 1.688,-10.563 1.688,-16 0,-5.5 -1.063,-10.656 -1.625,-16 l 33.625,0 z m -46.781,81.375 29.063,16.75 -16,27.719 -26.188,-15.125 c 4.719,-9.656 9.094,-19.406 13.125,-29.344 z m -290.563,0.063 c 3.969,9.938 8.344,19.75 13.031,29.438 l -25.969,14.969 -16,-27.719 28.938,-16.688 z"
       inkscape:connector-curvature="0" />
    <path
       style="fill:#ffff00"
       d="m 156.60941,349.86898 c -0.34731,-0.98214 -2.29378,-7.12127 -4.32549,-13.6425 -4.84567,-15.5533 -9.88615,-27.16426 -28.96178,-66.71464 -20.64445,-42.80308 -24.898188,-55.23825 -25.688821,-75.0974 -0.72733,-18.2691 1.440025,-28.23283 9.922791,-45.61689 11.25904,-23.07357 36.58674,-43.3948 61.36593,-49.23587 20.33803,-4.794179 47.91143,-1.845818 65.34188,6.98686 33.38509,16.9175 54.92393,53.5613 52.54361,89.39187 -1.29852,19.54637 -6.67148,33.8539 -32.18858,85.71428 -10.43264,21.20306 -17.88938,38.57753 -21.90905,51.04893 l -6.09364,18.90609 -34.68769,0.0225 c -26.47752,0.0172 -34.83715,-0.40015 -35.31916,-1.76321 z"
       id="path4146"
       inkscape:connector-curvature="0"
       transform="translate(376.57143,516.3622)" />
  </g>
</svg>
