<?xml version="1.0" encoding="UTF-8" standalone="no"?>
<!-- Created with Inkscape (http://www.inkscape.org/) -->

<svg
   xmlns:dc="http://purl.org/dc/elements/1.1/"
   xmlns:cc="http://creativecommons.org/ns#"
   xmlns:rdf="http://www.w3.org/1999/02/22-rdf-syntax-ns#"
   xmlns:svg="http://www.w3.org/2000/svg"
   xmlns="http://www.w3.org/2000/svg"
   xmlns:sodipodi="http://sodipodi.sourceforge.net/DTD/sodipodi-0.dtd"
   xmlns:inkscape="http://www.inkscape.org/namespaces/inkscape"
   width="108.37334mm"
   height="144.49777mm"
   viewBox="0 0 384.00001 511.99998"
   id="svg2"
   version="1.1"
   inkscape:version="0.91 r13725"
   sodipodi:docname="digitalOFF.svg">
  <defs
     id="defs4" />
  <sodipodi:namedview
     id="base"
     pagecolor="#ffffff"
     bordercolor="#666666"
     borderopacity="1.0"
     inkscape:pageopacity="0.0"
     inkscape:pageshadow="2"
     inkscape:zoom="0.49497475"
     inkscape:cx="559.17376"
     inkscape:cy="306.50353"
     inkscape:document-units="px"
     inkscape:current-layer="layer1"
     showgrid="false"
     fit-margin-top="0"
     fit-margin-left="0"
     fit-margin-right="0"
     fit-margin-bottom="0"
     inkscape:window-width="1366"
     inkscape:window-height="705"
     inkscape:window-x="-8"
     inkscape:window-y="-8"
     inkscape:window-maximized="1" />
  <metadata
     id="metadata7">
    <rdf:RDF>
      <cc:Work
         rdf:about="">
        <dc:format>image/svg+xml</dc:format>
        <dc:type
           rdf:resource="http://purl.org/dc/dcmitype/StillImage" />
        <dc:title></dc:title>
      </cc:Work>
    </rdf:RDF>
  </metadata>
  <g
     inkscape:label="Capa 1"
     inkscape:groupmode="layer"
     id="layer1"
     transform="translate(-376.57143,-516.3622)">
    <path
       id="path3337"
       d="m 568.57143,580.3622 c -70.688,0 -128,57.313 -128,128 0,64 64,129 64,192 l 128,0 c 0,-65 64,-128 64,-192 0,-70.687 -57.312,-128 -128,-128 z m 67.594,208.906 c -12.75,25.344 -25.781,51.344 -31.938,79.094 l -71.469,0 c -6.156,-26.906 -18.906,-52.5 -31.375,-77.5 -14.812,-29.781 -28.812,-57.906 -28.812,-82.5 0,-52.938 43.063,-96 96,-96 52.937,0 96,43.063 96,96 0,24.313 -13.812,51.813 -28.406,80.906 z m -3.594,191.094 c 0,8.844 -7.156,16 -16,16 l -2.938,0 c -6.594,18.625 -24.188,32 -45.063,32 -20.875,0 -38.469,-13.375 -45.063,-32 l -2.936,0 c -8.844,0 -16,-7.156 -16,-16 0,-8.844 7.156,-16 16,-16 l 96,0 c 8.844,0 16,7.156 16,16 z m 0,-48 c 0,8.844 -7.156,16 -16,16 l -96,0 c -8.844,0 -16,-7.156 -16,-16 0,-8.844 7.156,-16 16,-16 l 96,0 c 8.844,0 16,7.156 16,16 z"
       inkscape:connector-curvature="0"
       sodipodi:nodetypes="ssccssccccssscsscscssssssssssss" />
  </g>
</svg>
